<svg width="219" height="261" viewBox="0 0 219 261" fill="none" xmlns="http://www.w3.org/2000/svg">
<path d="M142.043 260.629C121.598 260.629 102.184 252.667 87.3776 238.201C85.157 236.033 83.0826 233.76 81.1683 231.395C79.7761 231.473 78.3699 231.508 76.9568 231.508C34.7378 231.515 0.384766 196.893 0.384766 154.343V154.133L1.77699 48.2884C1.83964 21.6501 23.3633 0 49.8086 0C76.2538 0 97.8401 21.7133 97.8401 48.4076V125.825L96.0999 183.682C96.1207 187.26 96.5802 190.789 97.4573 194.199C111.734 186.706 121.508 171.651 121.508 154.343V130.876L122.552 77.347C122.649 50.7368 144.159 29.1147 170.584 29.1147C197.008 29.1147 218.615 50.828 218.615 77.5224V183.458C218.615 226.007 184.262 260.629 142.043 260.629ZM116.364 220.486C123.958 225.601 132.834 228.358 142.043 228.358C166.609 228.358 186.594 208.216 186.594 183.458V77.5224C186.594 68.6266 179.41 61.3865 170.584 61.3865C161.757 61.3865 154.573 68.6266 154.573 77.5224V77.8381L153.529 131.353V154.343C153.529 182.377 138.618 206.974 116.364 220.486ZM32.4058 154.441C32.4476 175.137 46.4603 192.592 65.4223 197.714C64.5313 193.055 64.0788 188.292 64.0788 183.451V182.96L65.8191 125.327V48.4076C65.8191 39.5118 58.6352 32.2718 49.8086 32.2718C40.9819 32.2718 33.798 39.5118 33.798 48.4076V48.6181L32.4058 154.441Z" fill="url(#paint0_linear_1728_8172)"/>
<defs>
<linearGradient id="paint0_linear_1728_8172" x1="250.112" y1="20.3617" x2="-41.6886" y2="243.657" gradientUnits="userSpaceOnUse">
<stop offset="0.150266" stop-color="#2BE0F8"/>
<stop offset="0.515" stop-color="#4237FF"/>
<stop offset="0.775556" stop-color="#6A27FD"/>
</linearGradient>
</defs>
</svg>
